<svg width="21" height="25" viewBox="0 0 21 25" fill="none" xmlns="http://www.w3.org/2000/svg">
<g clip-path="url(#clip0_14_114)">
<path d="M20.539 21.6294L16.4897 16.9162C16.307 16.7035 16.0592 16.5853 15.7993 16.5853H15.1373C16.2582 14.9166 16.9243 12.8176 16.9243 10.5343C16.9243 5.10251 13.1431 0.701324 8.47643 0.701324C3.8098 0.701324 0.0285645 5.10251 0.0285645 10.5343C0.0285645 15.966 3.8098 20.3672 8.47643 20.3672C10.4381 20.3672 12.2414 19.5919 13.6751 18.2872V19.0577C13.6751 19.3603 13.7767 19.6487 13.9594 19.8614L18.0087 24.5746C18.3905 25.019 19.0078 25.019 19.3856 24.5746L20.535 23.2367C20.9167 22.7924 20.9167 22.0738 20.539 21.6294ZM8.47643 16.5853C5.60497 16.5853 3.27774 13.8813 3.27774 10.5343C3.27774 7.19202 5.60091 4.48323 8.47643 4.48323C11.3479 4.48323 13.6751 7.18729 13.6751 10.5343C13.6751 13.8765 11.352 16.5853 8.47643 16.5853Z" fill="#6B6A74" fill-opacity="0.62"/>
</g>
<defs>
<clipPath id="clip0_14_114">
<rect width="20.7948" height="24.2042" fill="white" transform="translate(0.0285645 0.701324)"/>
</clipPath>
</defs>
</svg>
