<svg width="15" height="13" viewBox="0 0 15 13" fill="none" xmlns="http://www.w3.org/2000/svg">
<g id="cart-shopping 3" clip-path="url(#clip0_14_145)">
<path id="Vector" d="M0 0.609375C0 0.27168 0.278646 0 0.625 0H1.8099C2.38281 0 2.89062 0.325 3.1276 0.8125H13.8307C14.5156 0.8125 15.0156 1.44727 14.8359 2.09219L13.7682 5.95918C13.5469 6.75645 12.8047 7.3125 11.9583 7.3125H4.44531L4.58594 8.03613C4.64323 8.32305 4.90104 8.53125 5.20052 8.53125H12.7083C13.0547 8.53125 13.3333 8.80293 13.3333 9.14062C13.3333 9.47832 13.0547 9.75 12.7083 9.75H5.20052C4.29948 9.75 3.52604 9.12539 3.35938 8.26465L2.01562 1.38379C1.9974 1.2873 1.91146 1.21875 1.8099 1.21875H0.625C0.278646 1.21875 0 0.94707 0 0.609375ZM3.33333 11.7812C3.33333 11.6212 3.36567 11.4627 3.42848 11.3149C3.4913 11.167 3.58338 11.0326 3.69945 10.9195C3.81552 10.8063 3.95332 10.7165 4.10498 10.6553C4.25664 10.594 4.41918 10.5625 4.58333 10.5625C4.74749 10.5625 4.91003 10.594 5.06169 10.6553C5.21334 10.7165 5.35114 10.8063 5.46722 10.9195C5.58329 11.0326 5.67536 11.167 5.73818 11.3149C5.801 11.4627 5.83333 11.6212 5.83333 11.7812C5.83333 11.9413 5.801 12.0998 5.73818 12.2476C5.67536 12.3955 5.58329 12.5299 5.46722 12.643C5.35114 12.7562 5.21334 12.846 5.06169 12.9072C4.91003 12.9685 4.74749 13 4.58333 13C4.41918 13 4.25664 12.9685 4.10498 12.9072C3.95332 12.846 3.81552 12.7562 3.69945 12.643C3.58338 12.5299 3.4913 12.3955 3.42848 12.2476C3.36567 12.0998 3.33333 11.9413 3.33333 11.7812ZM12.0833 10.5625C12.4149 10.5625 12.7328 10.6909 12.9672 10.9195C13.2016 11.148 13.3333 11.458 13.3333 11.7812C13.3333 12.1045 13.2016 12.4145 12.9672 12.643C12.7328 12.8716 12.4149 13 12.0833 13C11.7518 13 11.4339 12.8716 11.1994 12.643C10.965 12.4145 10.8333 12.1045 10.8333 11.7812C10.8333 11.458 10.965 11.148 11.1994 10.9195C11.4339 10.6909 11.7518 10.5625 12.0833 10.5625Z" fill="#F6F6F6"/>
</g>
<defs>
<clipPath id="clip0_14_145">
<rect width="15" height="13" fill="white"/>
</clipPath>
</defs>
</svg>
