<svg width="42" height="38" viewBox="0 0 42 38" fill="none" xmlns="http://www.w3.org/2000/svg">
<g clip-path="url(#clip0_11_19)">
<path d="M0 1.78125C0 0.794141 0.780208 0 1.75 0H5.06771C6.67187 0 8.09375 0.95 8.75729 2.375H38.726C40.6437 2.375 42.0437 4.23047 41.5406 6.11563L38.551 17.4191C37.9312 19.7496 35.8531 21.375 33.4833 21.375H12.4469L12.8406 23.4902C13.001 24.3289 13.7229 24.9375 14.5615 24.9375H35.5833C36.5531 24.9375 37.3333 25.7316 37.3333 26.7188C37.3333 27.7059 36.5531 28.5 35.5833 28.5H14.5615C12.0385 28.5 9.87292 26.6742 9.40625 24.1582L5.64375 4.04492C5.59271 3.76289 5.35208 3.5625 5.06771 3.5625H1.75C0.780208 3.5625 0 2.76836 0 1.78125ZM9.33333 34.4375C9.33333 33.9697 9.42386 33.5064 9.59975 33.0742C9.77565 32.642 10.0335 32.2492 10.3585 31.9184C10.6835 31.5876 11.0693 31.3252 11.4939 31.1462C11.9186 30.9671 12.3737 30.875 12.8333 30.875C13.293 30.875 13.7481 30.9671 14.1727 31.1462C14.5974 31.3252 14.9832 31.5876 15.3082 31.9184C15.6332 32.2492 15.891 32.642 16.0669 33.0742C16.2428 33.5064 16.3333 33.9697 16.3333 34.4375C16.3333 34.9053 16.2428 35.3686 16.0669 35.8008C15.891 36.233 15.6332 36.6258 15.3082 36.9566C14.9832 37.2874 14.5974 37.5498 14.1727 37.7288C13.7481 37.9079 13.293 38 12.8333 38C12.3737 38 11.9186 37.9079 11.4939 37.7288C11.0693 37.5498 10.6835 37.2874 10.3585 36.9566C10.0335 36.6258 9.77565 36.233 9.59975 35.8008C9.42386 35.3686 9.33333 34.9053 9.33333 34.4375ZM33.8333 30.875C34.7616 30.875 35.6518 31.2503 36.3082 31.9184C36.9646 32.5865 37.3333 33.4927 37.3333 34.4375C37.3333 35.3823 36.9646 36.2885 36.3082 36.9566C35.6518 37.6247 34.7616 38 33.8333 38C32.9051 38 32.0148 37.6247 31.3585 36.9566C30.7021 36.2885 30.3333 35.3823 30.3333 34.4375C30.3333 33.4927 30.7021 32.5865 31.3585 31.9184C32.0148 31.2503 32.9051 30.875 33.8333 30.875Z" fill="#6B6A74"/>
</g>
<defs>
<clipPath id="clip0_11_19">
<rect width="42" height="38" fill="white"/>
</clipPath>
</defs>
</svg>
