<svg width="33" height="38" viewBox="0 0 33 38" fill="none" xmlns="http://www.w3.org/2000/svg">
<g clip-path="url(#clip0_11_21)">
<path d="M16.5 19C19.0006 19 21.3988 17.9991 23.167 16.2175C24.9352 14.4359 25.9286 12.0196 25.9286 9.5C25.9286 6.98044 24.9352 4.56408 23.167 2.78249C21.3988 1.00089 19.0006 0 16.5 0C13.9994 0 11.6012 1.00089 9.83299 2.78249C8.06479 4.56408 7.07143 6.98044 7.07143 9.5C7.07143 12.0196 8.06479 14.4359 9.83299 16.2175C11.6012 17.9991 13.9994 19 16.5 19ZM13.1337 22.5625C5.87813 22.5625 0 28.4852 0 35.7957C0 37.0129 0.979688 38 2.18772 38H30.8123C32.0203 38 33 37.0129 33 35.7957C33 28.4852 27.1219 22.5625 19.8663 22.5625H13.1337Z" fill="#A1D6F4"/>
</g>
<defs>
<clipPath id="clip0_11_21">
<rect width="33" height="38" fill="white"/>
</clipPath>
</defs>
</svg>
